<svg width="76" height="77" viewBox="0 0 76 77" fill="none" xmlns="http://www.w3.org/2000/svg">
<path d="M13.4327 53.1506L1.79352 29.8723C-0.731324 24.8226 2.94066 18.8812 8.58639 18.8812C12.7808 18.8812 16.181 15.4809 16.181 11.2865V9.52757C16.181 4.55701 20.2105 0.527573 25.181 0.527573H39.2998C44.2703 0.527573 48.2998 4.557 48.2998 9.52757V27.2609C48.2998 33.9513 55.3406 38.3028 61.3247 35.3107L62.8052 34.5704C68.7894 31.5784 75.8302 35.9299 75.8302 42.6203V49.6473C75.8302 54.6179 71.8007 58.6473 66.8302 58.6473H57.2998C52.3292 58.6473 48.2998 62.6768 48.2998 67.6473V68.0009C48.2998 72.9715 44.2703 77.0009 39.2998 77.0009H17.2115C9.76799 77.0009 6.19579 67.8645 11.6653 62.8157C14.3402 60.3466 15.0606 56.4066 13.4327 53.1506Z" fill="#939DFF"/>
</svg>
