<svg width="32" height="32" viewBox="0 0 32 32" fill="none" xmlns="http://www.w3.org/2000/svg">
<path d="M6.30502 22.5475L1.32891 12.8068C0.249461 10.6937 1.81935 8.20757 4.23308 8.20757C6.02632 8.20757 7.48003 6.78476 7.48003 5.02962V4.29359C7.48003 2.21368 9.20275 0.527573 11.3278 0.527573H17.364C19.4891 0.527573 21.2118 2.21367 21.2118 4.29359V11.714C21.2118 14.5136 24.222 16.3345 26.7804 15.0825L27.4134 14.7727C29.9718 13.5207 32.9819 15.3415 32.9819 18.1411V21.0816C32.9819 23.1615 31.2592 24.8476 29.1341 24.8476H25.0596C22.9345 24.8476 21.2118 26.5337 21.2118 28.6136V28.7616C21.2118 30.8415 19.4891 32.5276 17.364 32.5276H7.92057C4.73825 32.5276 3.21102 28.7045 5.5494 26.5918C6.693 25.5586 7.00103 23.9099 6.30502 22.5475Z" fill="#939DFF"/>
</svg>
